<mxfile host="app.diagrams.net" modified="2023-03-13T01:26:51.652Z" agent="5.0 (Macintosh; Intel Mac OS X 10_15_7) AppleWebKit/605.1.15 (KHTML, like Gecko) Version/16.3 Safari/605.1.15" etag="aO7m7dBq8CkYdY9I0kGk" version="21.0.6" type="github">
  <diagram name="Página-1" id="zQrOjAx_i28fqeZbg2pH">
    <mxGraphModel dx="2210" dy="-1564" grid="1" gridSize="10" guides="1" tooltips="1" connect="1" arrows="1" fold="1" page="1" pageScale="1" pageWidth="827" pageHeight="1169" math="0" shadow="0">
      <root>
        <mxCell id="0" />
        <mxCell id="1" parent="0" />
        <mxCell id="1gikc7E1U_suuXp8IC54-1" value="EQUIPO &lt;span style=&quot;font-size: 11pt; font-family: Arial; color: rgb(0, 0, 0); background-color: transparent; font-weight: 400; font-style: normal; font-variant: normal; text-decoration: underline; text-decoration-skip-ink: none; vertical-align: baseline;&quot;&gt;(Nombre corto&lt;/span&gt;&lt;span style=&quot;font-size: 11pt; font-family: Arial; background-color: transparent; font-weight: 400; font-style: normal; font-variant-ligatures: normal; font-variant-numeric: normal; font-variant-caps: normal; font-variant-alternates: normal; font-variant-east-asian: normal; font-variant-position: normal; text-decoration: none; vertical-align: baseline;&quot;&gt;, Nombre oficial, Nombre histórico, Otros Nombres, Ciudad, Fecha fundación, &lt;font&gt;Estadio&lt;/font&gt;)&lt;/span&gt;" style="text;html=1;strokeColor=none;fillColor=none;align=center;verticalAlign=middle;whiteSpace=wrap;rounded=0;" vertex="1" parent="1">
          <mxGeometry x="-140" y="2610" width="740" height="30" as="geometry" />
        </mxCell>
        <mxCell id="1gikc7E1U_suuXp8IC54-3" value="&lt;p id=&quot;docs-internal-guid-b29137fc-7fff-e210-7a7c-c94be5e26367&quot; style=&quot;line-height: 1.38; margin-top: 0pt; margin-bottom: 0pt; font-size: 13px;&quot; dir=&quot;ltr&quot;&gt;&lt;font style=&quot;font-size: 13px;&quot;&gt;PARTIDO(&lt;u&gt;IdPar&lt;/u&gt;,&amp;nbsp;IdJor&amp;nbsp;&lt;u&gt;,&lt;/u&gt;EquipoL&lt;u&gt;,&lt;/u&gt; EquipoV&lt;/font&gt;&lt;font style=&quot;font-size: 13px;&quot;&gt;, &lt;/font&gt;&lt;font style=&quot;font-size: 13px;&quot;&gt;Estadio&lt;u&gt;,&lt;/u&gt; &lt;/font&gt;&lt;font style=&quot;font-size: 13px;&quot;&gt;Goles local, Goles Visitante)&lt;/font&gt;&lt;/p&gt;&lt;p id=&quot;docs-internal-guid-ae7be185-7fff-9508-fb25-8bbcf56c84a8&quot; style=&quot;line-height: 1.38; margin-top: 0pt; margin-bottom: 0pt; font-size: 13px;&quot; dir=&quot;ltr&quot;&gt;&lt;/p&gt;" style="text;html=1;strokeColor=none;fillColor=none;align=center;verticalAlign=middle;whiteSpace=wrap;rounded=0;" vertex="1" parent="1">
          <mxGeometry x="-130" y="2780" width="740" height="30" as="geometry" />
        </mxCell>
        <mxCell id="1gikc7E1U_suuXp8IC54-4" value="&lt;p id=&quot;docs-internal-guid-ae7be185-7fff-9508-fb25-8bbcf56c84a8&quot; style=&quot;line-height:1.38;margin-top:0pt;margin-bottom:0pt;&quot; dir=&quot;ltr&quot;&gt;ESTADIOS(&lt;span style=&quot;font-size: 11pt; font-family: Arial; color: rgb(0, 0, 0); background-color: transparent; font-weight: 400; font-style: normal; font-variant: normal; text-decoration: underline; text-decoration-skip-ink: none; vertical-align: baseline;&quot;&gt;Nombre&lt;/span&gt;&lt;span style=&quot;font-size: 11pt; font-family: Arial; color: rgb(0, 0, 0); background-color: transparent; font-weight: 400; font-style: normal; font-variant: normal; text-decoration: none; vertical-align: baseline;&quot;&gt;, Capacidad, Fecha de inauguración)&lt;/span&gt;&lt;/p&gt;" style="text;html=1;strokeColor=none;fillColor=none;align=center;verticalAlign=middle;whiteSpace=wrap;rounded=0;" vertex="1" parent="1">
          <mxGeometry x="-135" y="2670" width="740" height="30" as="geometry" />
        </mxCell>
        <mxCell id="1gikc7E1U_suuXp8IC54-5" value="&lt;p id=&quot;docs-internal-guid-d062ec6a-7fff-5ad4-b682-37d9f37c2bd6&quot; style=&quot;line-height: 1.38; margin-top: 0pt; margin-bottom: 0pt; font-size: 13px;&quot; dir=&quot;ltr&quot;&gt;JORNADA(&lt;u&gt;IdJor&lt;/u&gt;,&amp;nbsp;Temporada, Número)&lt;/p&gt;&lt;p id=&quot;docs-internal-guid-b29137fc-7fff-e210-7a7c-c94be5e26367&quot; style=&quot;line-height:1.38;margin-top:0pt;margin-bottom:0pt;&quot; dir=&quot;ltr&quot;&gt;&lt;/p&gt;&lt;p id=&quot;docs-internal-guid-ae7be185-7fff-9508-fb25-8bbcf56c84a8&quot; style=&quot;line-height:1.38;margin-top:0pt;margin-bottom:0pt;&quot; dir=&quot;ltr&quot;&gt;&lt;/p&gt;" style="text;html=1;strokeColor=none;fillColor=none;align=center;verticalAlign=middle;whiteSpace=wrap;rounded=0;" vertex="1" parent="1">
          <mxGeometry x="-135" y="2730" width="740" height="30" as="geometry" />
        </mxCell>
        <mxCell id="1gikc7E1U_suuXp8IC54-6" value="&lt;p id=&quot;docs-internal-guid-06d0baa3-7fff-bc2a-16c3-9cde62015013&quot; style=&quot;line-height: 1.38; margin-top: 0pt; margin-bottom: 0pt; font-size: 13px;&quot; dir=&quot;ltr&quot;&gt;TEMPORADA(&lt;u&gt;TempCod&lt;/u&gt;,&amp;nbsp;Division,&amp;nbsp;&lt;span style=&quot;font-family: Arial; background-color: transparent; font-style: normal; font-variant-ligatures: normal; font-variant-numeric: normal; font-variant-caps: normal; font-variant-alternates: normal; font-variant-east-asian: normal; font-variant-position: normal; text-decoration-skip-ink: none; vertical-align: baseline;&quot;&gt;Inicio&lt;/span&gt;&lt;span style=&quot;font-family: Arial; background-color: transparent; font-style: normal; font-variant-ligatures: normal; font-variant-numeric: normal; font-variant-caps: normal; font-variant-alternates: normal; font-variant-east-asian: normal; font-variant-position: normal; text-decoration: none; vertical-align: baseline;&quot;&gt;, Fin)&lt;/span&gt;&lt;/p&gt;&lt;p id=&quot;docs-internal-guid-d062ec6a-7fff-5ad4-b682-37d9f37c2bd6&quot; style=&quot;line-height:1.38;margin-top:0pt;margin-bottom:0pt;&quot; dir=&quot;ltr&quot;&gt;&lt;/p&gt;&lt;p id=&quot;docs-internal-guid-b29137fc-7fff-e210-7a7c-c94be5e26367&quot; style=&quot;line-height:1.38;margin-top:0pt;margin-bottom:0pt;&quot; dir=&quot;ltr&quot;&gt;&lt;/p&gt;&lt;p id=&quot;docs-internal-guid-ae7be185-7fff-9508-fb25-8bbcf56c84a8&quot; style=&quot;line-height:1.38;margin-top:0pt;margin-bottom:0pt;&quot; dir=&quot;ltr&quot;&gt;&lt;/p&gt;" style="text;html=1;strokeColor=none;fillColor=none;align=center;verticalAlign=middle;whiteSpace=wrap;rounded=0;" vertex="1" parent="1">
          <mxGeometry x="-140" y="2830" width="740" height="30" as="geometry" />
        </mxCell>
        <mxCell id="1gikc7E1U_suuXp8IC54-7" value="&lt;p id=&quot;docs-internal-guid-3562eadd-7fff-00f9-283a-577bf8721a5b&quot; style=&quot;line-height: 1.38; margin-top: 0pt; margin-bottom: 0pt; font-size: 13px;&quot; dir=&quot;ltr&quot;&gt;&lt;font style=&quot;font-size: 13px;&quot; color=&quot;#330000&quot;&gt;DIVISIÓN(&lt;u&gt;Denominación oficial&lt;/u&gt;)&lt;/font&gt;&lt;/p&gt;" style="text;whiteSpace=wrap;html=1;fontColor=#FF3333;" vertex="1" parent="1">
          <mxGeometry x="125" y="2880" width="220" height="40" as="geometry" />
        </mxCell>
        <mxCell id="1gikc7E1U_suuXp8IC54-9" value="EQUIPO &lt;span style=&quot;font-size: 11pt; font-family: Arial; background-color: transparent; font-weight: 400; font-style: normal; font-variant-ligatures: normal; font-variant-numeric: normal; font-variant-caps: normal; font-variant-alternates: normal; font-variant-east-asian: normal; font-variant-position: normal; text-decoration: underline; text-decoration-skip-ink: none; vertical-align: baseline;&quot;&gt;(Nombre corto&lt;/span&gt;&lt;span style=&quot;font-size: 11pt; font-family: Arial; background-color: transparent; font-weight: 400; font-style: normal; font-variant-ligatures: normal; font-variant-numeric: normal; font-variant-caps: normal; font-variant-alternates: normal; font-variant-east-asian: normal; font-variant-position: normal; text-decoration: none; vertical-align: baseline;&quot;&gt;, Nombre oficial, Nombre histórico, Ciudad, Fecha fundación, &lt;font&gt;Estadio&lt;/font&gt;)&lt;/span&gt;" style="text;html=1;strokeColor=none;fillColor=none;align=center;verticalAlign=middle;whiteSpace=wrap;rounded=0;" vertex="1" parent="1">
          <mxGeometry x="-140" y="3080" width="740" height="30" as="geometry" />
        </mxCell>
        <mxCell id="1gikc7E1U_suuXp8IC54-10" value="" style="endArrow=none;html=1;rounded=0;" edge="1" parent="1">
          <mxGeometry width="50" height="50" relative="1" as="geometry">
            <mxPoint x="-190" y="2970" as="sourcePoint" />
            <mxPoint x="630" y="2970" as="targetPoint" />
          </mxGeometry>
        </mxCell>
        <mxCell id="1gikc7E1U_suuXp8IC54-11" value="&lt;p id=&quot;docs-internal-guid-b29137fc-7fff-e210-7a7c-c94be5e26367&quot; style=&quot;line-height: 1.38; margin-top: 0pt; margin-bottom: 0pt; font-size: 13px;&quot; dir=&quot;ltr&quot;&gt;&lt;font style=&quot;font-size: 13px;&quot;&gt;PARTIDO(&lt;u&gt;IdPar&lt;/u&gt;,&amp;nbsp;IdJor&amp;nbsp;&lt;u&gt;,&lt;/u&gt;EquipoL&lt;u&gt;,&lt;/u&gt; EquipoV&lt;/font&gt;&lt;font style=&quot;font-size: 13px;&quot;&gt;, &lt;/font&gt;&lt;font style=&quot;font-size: 13px;&quot;&gt;Estadio&lt;u&gt;,&lt;/u&gt; &lt;/font&gt;&lt;font style=&quot;font-size: 13px;&quot;&gt;Goles local, Goles Visitante)&lt;/font&gt;&lt;/p&gt;&lt;p id=&quot;docs-internal-guid-ae7be185-7fff-9508-fb25-8bbcf56c84a8&quot; style=&quot;line-height: 1.38; margin-top: 0pt; margin-bottom: 0pt; font-size: 13px;&quot; dir=&quot;ltr&quot;&gt;&lt;/p&gt;" style="text;html=1;strokeColor=none;fillColor=none;align=center;verticalAlign=middle;whiteSpace=wrap;rounded=0;" vertex="1" parent="1">
          <mxGeometry x="-130" y="3250" width="740" height="30" as="geometry" />
        </mxCell>
        <mxCell id="1gikc7E1U_suuXp8IC54-12" value="&lt;p id=&quot;docs-internal-guid-ae7be185-7fff-9508-fb25-8bbcf56c84a8&quot; style=&quot;line-height:1.38;margin-top:0pt;margin-bottom:0pt;&quot; dir=&quot;ltr&quot;&gt;ESTADIOS(&lt;span style=&quot;font-size: 11pt; font-family: Arial; color: rgb(0, 0, 0); background-color: transparent; font-weight: 400; font-style: normal; font-variant: normal; text-decoration: underline; text-decoration-skip-ink: none; vertical-align: baseline;&quot;&gt;Nombre&lt;/span&gt;&lt;span style=&quot;font-size: 11pt; font-family: Arial; color: rgb(0, 0, 0); background-color: transparent; font-weight: 400; font-style: normal; font-variant: normal; text-decoration: none; vertical-align: baseline;&quot;&gt;, Capacidad, Fecha de inauguración)&lt;/span&gt;&lt;/p&gt;" style="text;html=1;strokeColor=none;fillColor=none;align=center;verticalAlign=middle;whiteSpace=wrap;rounded=0;" vertex="1" parent="1">
          <mxGeometry x="-135" y="3140" width="740" height="30" as="geometry" />
        </mxCell>
        <mxCell id="1gikc7E1U_suuXp8IC54-13" value="&lt;p id=&quot;docs-internal-guid-d062ec6a-7fff-5ad4-b682-37d9f37c2bd6&quot; style=&quot;line-height: 1.38; margin-top: 0pt; margin-bottom: 0pt; font-size: 13px;&quot; dir=&quot;ltr&quot;&gt;JORNADA(&lt;u&gt;IdJor&lt;/u&gt;,&amp;nbsp;Temporada, Número)&lt;/p&gt;&lt;p id=&quot;docs-internal-guid-b29137fc-7fff-e210-7a7c-c94be5e26367&quot; style=&quot;line-height:1.38;margin-top:0pt;margin-bottom:0pt;&quot; dir=&quot;ltr&quot;&gt;&lt;/p&gt;&lt;p id=&quot;docs-internal-guid-ae7be185-7fff-9508-fb25-8bbcf56c84a8&quot; style=&quot;line-height:1.38;margin-top:0pt;margin-bottom:0pt;&quot; dir=&quot;ltr&quot;&gt;&lt;/p&gt;" style="text;html=1;strokeColor=none;fillColor=none;align=center;verticalAlign=middle;whiteSpace=wrap;rounded=0;" vertex="1" parent="1">
          <mxGeometry x="-135" y="3200" width="740" height="30" as="geometry" />
        </mxCell>
        <mxCell id="1gikc7E1U_suuXp8IC54-14" value="&lt;p id=&quot;docs-internal-guid-06d0baa3-7fff-bc2a-16c3-9cde62015013&quot; style=&quot;line-height: 1.38; margin-top: 0pt; margin-bottom: 0pt; font-size: 13px;&quot; dir=&quot;ltr&quot;&gt;TEMPORADA(&lt;u&gt;TempCod&lt;/u&gt;,&amp;nbsp;Division,&amp;nbsp;&lt;span style=&quot;font-family: Arial; background-color: transparent; font-style: normal; font-variant-ligatures: normal; font-variant-numeric: normal; font-variant-caps: normal; font-variant-alternates: normal; font-variant-east-asian: normal; font-variant-position: normal; text-decoration-skip-ink: none; vertical-align: baseline;&quot;&gt;Inicio&lt;/span&gt;&lt;span style=&quot;font-family: Arial; background-color: transparent; font-style: normal; font-variant-ligatures: normal; font-variant-numeric: normal; font-variant-caps: normal; font-variant-alternates: normal; font-variant-east-asian: normal; font-variant-position: normal; text-decoration: none; vertical-align: baseline;&quot;&gt;, Fin)&lt;/span&gt;&lt;/p&gt;&lt;p id=&quot;docs-internal-guid-d062ec6a-7fff-5ad4-b682-37d9f37c2bd6&quot; style=&quot;line-height:1.38;margin-top:0pt;margin-bottom:0pt;&quot; dir=&quot;ltr&quot;&gt;&lt;/p&gt;&lt;p id=&quot;docs-internal-guid-b29137fc-7fff-e210-7a7c-c94be5e26367&quot; style=&quot;line-height:1.38;margin-top:0pt;margin-bottom:0pt;&quot; dir=&quot;ltr&quot;&gt;&lt;/p&gt;&lt;p id=&quot;docs-internal-guid-ae7be185-7fff-9508-fb25-8bbcf56c84a8&quot; style=&quot;line-height:1.38;margin-top:0pt;margin-bottom:0pt;&quot; dir=&quot;ltr&quot;&gt;&lt;/p&gt;" style="text;html=1;strokeColor=none;fillColor=none;align=center;verticalAlign=middle;whiteSpace=wrap;rounded=0;" vertex="1" parent="1">
          <mxGeometry x="-140" y="3300" width="740" height="30" as="geometry" />
        </mxCell>
        <mxCell id="1gikc7E1U_suuXp8IC54-15" value="&lt;p id=&quot;docs-internal-guid-3562eadd-7fff-00f9-283a-577bf8721a5b&quot; style=&quot;line-height: 1.38; margin-top: 0pt; margin-bottom: 0pt; font-size: 13px;&quot; dir=&quot;ltr&quot;&gt;&lt;font style=&quot;font-size: 13px;&quot; color=&quot;#330000&quot;&gt;DIVISIÓN(&lt;u&gt;Denominación oficial&lt;/u&gt;)&lt;/font&gt;&lt;/p&gt;" style="text;whiteSpace=wrap;html=1;fontColor=#FF3333;" vertex="1" parent="1">
          <mxGeometry x="125" y="3350" width="220" height="40" as="geometry" />
        </mxCell>
        <mxCell id="1gikc7E1U_suuXp8IC54-16" value="OTROS NOMBRES(&lt;u&gt;Otros nombres, EQUIPO&lt;/u&gt;)" style="text;html=1;strokeColor=none;fillColor=none;align=center;verticalAlign=middle;whiteSpace=wrap;rounded=0;" vertex="1" parent="1">
          <mxGeometry x="-140" y="3020" width="740" height="30" as="geometry" />
        </mxCell>
        <mxCell id="1gikc7E1U_suuXp8IC54-17" value="" style="endArrow=none;dashed=1;html=1;strokeWidth=2;rounded=0;" edge="1" parent="1">
          <mxGeometry width="50" height="50" relative="1" as="geometry">
            <mxPoint x="530" y="2640" as="sourcePoint" />
            <mxPoint x="590" y="2640" as="targetPoint" />
          </mxGeometry>
        </mxCell>
        <mxCell id="1gikc7E1U_suuXp8IC54-18" value="" style="endArrow=none;dashed=1;html=1;strokeWidth=2;rounded=0;" edge="1" parent="1">
          <mxGeometry width="50" height="50" relative="1" as="geometry">
            <mxPoint x="230" y="2759.33" as="sourcePoint" />
            <mxPoint x="290" y="2759.33" as="targetPoint" />
          </mxGeometry>
        </mxCell>
        <mxCell id="1gikc7E1U_suuXp8IC54-19" value="" style="endArrow=none;dashed=1;html=1;strokeWidth=2;rounded=0;" edge="1" parent="1">
          <mxGeometry width="50" height="50" relative="1" as="geometry">
            <mxPoint x="110" y="2810" as="sourcePoint" />
            <mxPoint x="130" y="2810" as="targetPoint" />
          </mxGeometry>
        </mxCell>
        <mxCell id="1gikc7E1U_suuXp8IC54-20" value="" style="endArrow=none;dashed=1;html=1;strokeWidth=2;rounded=0;" edge="1" parent="1">
          <mxGeometry width="50" height="50" relative="1" as="geometry">
            <mxPoint x="150" y="2810" as="sourcePoint" />
            <mxPoint x="190" y="2810" as="targetPoint" />
          </mxGeometry>
        </mxCell>
        <mxCell id="1gikc7E1U_suuXp8IC54-21" value="" style="endArrow=none;dashed=1;html=1;strokeWidth=2;rounded=0;" edge="1" parent="1">
          <mxGeometry width="50" height="50" relative="1" as="geometry">
            <mxPoint x="210" y="2810" as="sourcePoint" />
            <mxPoint x="240" y="2810" as="targetPoint" />
          </mxGeometry>
        </mxCell>
        <mxCell id="1gikc7E1U_suuXp8IC54-22" value="" style="endArrow=none;dashed=1;html=1;strokeWidth=2;rounded=0;" edge="1" parent="1">
          <mxGeometry width="50" height="50" relative="1" as="geometry">
            <mxPoint x="260" y="2810" as="sourcePoint" />
            <mxPoint x="300" y="2810" as="targetPoint" />
          </mxGeometry>
        </mxCell>
        <mxCell id="1gikc7E1U_suuXp8IC54-23" value="" style="endArrow=none;dashed=1;html=1;strokeWidth=2;rounded=0;" edge="1" parent="1">
          <mxGeometry width="50" height="50" relative="1" as="geometry">
            <mxPoint x="250" y="2860" as="sourcePoint" />
            <mxPoint x="290" y="2860" as="targetPoint" />
          </mxGeometry>
        </mxCell>
        <mxCell id="1gikc7E1U_suuXp8IC54-24" value="" style="endArrow=none;dashed=1;html=1;strokeWidth=2;rounded=0;" edge="1" parent="1">
          <mxGeometry width="50" height="50" relative="1" as="geometry">
            <mxPoint x="305" y="3050" as="sourcePoint" />
            <mxPoint x="345" y="3050" as="targetPoint" />
          </mxGeometry>
        </mxCell>
        <mxCell id="1gikc7E1U_suuXp8IC54-25" value="" style="endArrow=none;dashed=1;html=1;strokeWidth=2;rounded=0;entryX=0.901;entryY=0.978;entryDx=0;entryDy=0;entryPerimeter=0;" edge="1" parent="1" target="1gikc7E1U_suuXp8IC54-9">
          <mxGeometry width="50" height="50" relative="1" as="geometry">
            <mxPoint x="480" y="3110" as="sourcePoint" />
            <mxPoint x="520" y="3110" as="targetPoint" />
          </mxGeometry>
        </mxCell>
        <mxCell id="1gikc7E1U_suuXp8IC54-26" value="" style="endArrow=none;dashed=1;html=1;strokeWidth=2;rounded=0;" edge="1" parent="1">
          <mxGeometry width="50" height="50" relative="1" as="geometry">
            <mxPoint x="230" y="3230" as="sourcePoint" />
            <mxPoint x="290" y="3230" as="targetPoint" />
          </mxGeometry>
        </mxCell>
        <mxCell id="1gikc7E1U_suuXp8IC54-27" value="" style="endArrow=none;dashed=1;html=1;strokeWidth=2;rounded=0;" edge="1" parent="1">
          <mxGeometry width="50" height="50" relative="1" as="geometry">
            <mxPoint x="110" y="3280" as="sourcePoint" />
            <mxPoint x="130" y="3280" as="targetPoint" />
          </mxGeometry>
        </mxCell>
        <mxCell id="1gikc7E1U_suuXp8IC54-28" value="" style="endArrow=none;dashed=1;html=1;strokeWidth=2;rounded=0;" edge="1" parent="1">
          <mxGeometry width="50" height="50" relative="1" as="geometry">
            <mxPoint x="150" y="3280" as="sourcePoint" />
            <mxPoint x="190" y="3280" as="targetPoint" />
          </mxGeometry>
        </mxCell>
        <mxCell id="1gikc7E1U_suuXp8IC54-29" value="" style="endArrow=none;dashed=1;html=1;strokeWidth=2;rounded=0;" edge="1" parent="1">
          <mxGeometry width="50" height="50" relative="1" as="geometry">
            <mxPoint x="210" y="3280" as="sourcePoint" />
            <mxPoint x="240" y="3280" as="targetPoint" />
          </mxGeometry>
        </mxCell>
        <mxCell id="1gikc7E1U_suuXp8IC54-30" value="" style="endArrow=none;dashed=1;html=1;strokeWidth=2;rounded=0;" edge="1" parent="1">
          <mxGeometry width="50" height="50" relative="1" as="geometry">
            <mxPoint x="260" y="3280" as="sourcePoint" />
            <mxPoint x="300" y="3280" as="targetPoint" />
          </mxGeometry>
        </mxCell>
        <mxCell id="1gikc7E1U_suuXp8IC54-31" value="" style="endArrow=none;dashed=1;html=1;strokeWidth=2;rounded=0;" edge="1" parent="1">
          <mxGeometry width="50" height="50" relative="1" as="geometry">
            <mxPoint x="250" y="3330" as="sourcePoint" />
            <mxPoint x="290" y="3330" as="targetPoint" />
          </mxGeometry>
        </mxCell>
      </root>
    </mxGraphModel>
  </diagram>
</mxfile>
